<svg width="721" height="150" viewBox="0 0 721 150" fill="none" xmlns="http://www.w3.org/2000/svg">
<path d="M74.6657 0C33.4937 0 -0.000976562 33.4947 -0.000976562 74.6667C-0.000976562 115.839 33.4937 149.333 74.6657 149.333C115.838 149.333 149.332 115.839 149.332 74.6667C149.332 33.4947 115.838 0 74.6657 0ZM119.196 83.6253C121.274 85.7035 121.274 89.1201 119.196 91.1983C118.181 92.2139 116.795 92.7452 115.41 92.7452C114.077 92.7452 112.691 92.2139 111.676 91.1983L105.061 84.5837C97.9152 90.2348 89.2744 93.9692 79.993 94.9848V105.704C79.993 108.636 77.592 111.037 74.6597 111.037C71.7274 111.037 69.3264 108.636 69.3264 105.704V94.9848C60.092 94.1306 51.3264 90.1827 44.3157 84.5317L37.649 91.1984C36.6334 92.214 35.248 92.7453 33.9146 92.7453C32.5292 92.7453 31.1438 92.2141 30.1282 91.1984C28.0501 89.1203 28.0501 85.7036 30.1282 83.6255L36.7949 76.9588C31.7793 70.7713 28.2064 63.3601 26.7689 55.2508C26.2376 52.3185 28.1544 49.5425 31.0345 49.0112C34.0189 48.532 36.7428 50.4487 37.222 53.3289C40.0501 68.9543 52.4193 81.2769 67.9406 84.0476C88.5806 87.7299 108.367 73.9121 112.102 53.3289C112.581 50.4487 115.357 48.5268 118.289 49.0112C121.17 49.5425 123.092 52.3185 122.555 55.2508C121.118 63.5164 117.539 70.8761 112.581 77.0628L119.196 83.6253Z" fill="white"/>
<path d="M234.588 101.287C234.588 103.571 234.389 105.558 233.992 107.247H228.032C228.429 108.836 228.628 110.823 228.628 113.207C228.628 115.491 228.429 117.478 228.032 119.167H195.252C194.855 117.478 194.656 115.491 194.656 113.207C194.656 110.823 194.855 108.836 195.252 107.247H222.072C221.675 105.558 221.476 103.571 221.476 101.287C221.476 98.9027 221.675 96.9161 222.072 95.3267H198.232C197.835 93.6381 197.636 91.6514 197.636 89.3667C197.636 86.9827 197.835 84.9961 198.232 83.4067H192.272C191.875 81.7181 191.676 79.7314 191.676 77.4467C191.676 75.0627 191.875 73.0761 192.272 71.4867H198.232C197.835 69.7981 197.636 67.8114 197.636 65.5267C197.636 63.1427 197.835 61.1561 198.232 59.5667H231.012C231.409 61.1561 231.608 63.1427 231.608 65.5267C231.608 67.8114 231.409 69.7981 231.012 71.4867H204.192C204.589 73.0761 204.788 75.0627 204.788 77.4467C204.788 79.7314 204.589 81.7181 204.192 83.4067H228.032C228.429 84.9961 228.628 86.9827 228.628 89.3667C228.628 91.6514 228.429 93.6381 228.032 95.3267H233.992C234.389 96.9161 234.588 98.9027 234.588 101.287ZM259.976 65.5267C259.976 67.8114 259.778 69.7981 259.38 71.4867H265.34C265.738 73.0761 265.936 75.0627 265.936 77.4467C265.936 79.7314 265.738 81.7181 265.34 83.4067H260.87C261.268 84.9961 261.466 86.9827 261.466 89.3667C261.466 91.6514 261.268 93.6381 260.87 95.3267C261.268 96.9161 261.466 98.9027 261.466 101.287C261.466 103.571 261.268 105.558 260.87 107.247C261.268 108.836 261.466 110.823 261.466 113.207C261.466 115.491 261.268 117.478 260.87 119.167H248.95C248.553 117.478 248.354 115.491 248.354 113.207C248.354 110.823 248.553 108.836 248.95 107.247C248.553 105.558 248.354 103.571 248.354 101.287C248.354 98.9027 248.553 96.9161 248.95 95.3267C248.553 93.6381 248.354 91.6514 248.354 89.3667C248.354 86.9827 248.553 84.9961 248.95 83.4067C248.553 81.7181 248.354 79.7314 248.354 77.4467C248.354 75.0627 248.553 73.0761 248.95 71.4867C248.553 69.7981 248.354 67.8114 248.354 65.5267C248.354 63.1427 248.553 61.1561 248.95 59.5667H259.38C259.778 61.1561 259.976 63.1427 259.976 65.5267ZM296.63 83.4067C297.028 84.9961 297.226 86.9827 297.226 89.3667C297.226 91.6514 297.028 93.6381 296.63 95.3267C297.028 96.9161 297.226 98.9027 297.226 101.287C297.226 103.571 297.028 105.558 296.63 107.247C297.028 108.836 297.226 110.823 297.226 113.207C297.226 115.491 297.028 117.478 296.63 119.167H284.71C284.313 117.478 284.114 115.491 284.114 113.207C284.114 110.823 284.313 108.836 284.71 107.247C284.313 105.558 284.114 103.571 284.114 101.287C284.114 98.9027 284.313 96.9161 284.71 95.3267C284.313 93.6381 284.114 91.6514 284.114 89.3667C284.114 86.9827 284.313 84.9961 284.71 83.4067C284.313 81.7181 284.114 79.7314 284.114 77.4467C284.114 75.0627 284.313 73.0761 284.71 71.4867H265.34C264.943 69.7981 264.744 67.8114 264.744 65.5267C264.744 63.1427 264.943 61.1561 265.34 59.5667H289.18C289.578 61.1561 289.776 63.1427 289.776 65.5267C289.776 67.8114 289.578 69.7981 289.18 71.4867H296.63C297.028 73.0761 297.226 75.0627 297.226 77.4467C297.226 79.7314 297.028 81.7181 296.63 83.4067ZM356.884 77.4467C356.884 79.7314 356.686 81.7181 356.288 83.4067C356.686 84.9961 356.884 86.9827 356.884 89.3667C356.884 91.6514 356.686 93.6381 356.288 95.3267H324.998C325.396 96.9161 325.594 98.9027 325.594 101.287C325.594 103.571 325.396 105.558 324.998 107.247H350.328C350.726 108.836 350.924 110.823 350.924 113.207C350.924 115.491 350.726 117.478 350.328 119.167H320.528C320.131 117.478 319.932 115.491 319.932 113.207C319.932 110.823 320.131 108.836 320.528 107.247H313.078C312.681 105.558 312.482 103.571 312.482 101.287C312.482 98.9027 312.681 96.9161 313.078 95.3267H308.608C308.211 93.6381 308.012 91.6514 308.012 89.3667C308.012 86.9827 308.211 84.9961 308.608 83.4067H313.078C312.681 81.7181 312.482 79.7314 312.482 77.4467C312.482 75.0627 312.681 73.0761 313.078 71.4867H320.528C320.131 69.7981 319.932 67.8114 319.932 65.5267C319.932 63.1427 320.131 61.1561 320.528 59.5667H350.328C350.726 61.1561 350.924 63.1427 350.924 65.5267C350.924 67.8114 350.726 69.7981 350.328 71.4867H356.288C356.686 73.0761 356.884 75.0627 356.884 77.4467ZM344.368 83.4067C343.971 81.7181 343.772 79.7314 343.772 77.4467C343.772 75.0627 343.971 73.0761 344.368 71.4867H324.998C325.396 73.0761 325.594 75.0627 325.594 77.4467C325.594 79.7314 325.396 81.7181 324.998 83.4067H344.368ZM415.947 107.247C416.344 108.836 416.543 110.823 416.543 113.207C416.543 115.491 416.344 117.478 415.947 119.167H404.027C403.629 117.478 403.431 115.491 403.431 113.207C403.431 110.823 403.629 108.836 404.027 107.247H398.067C397.669 105.558 397.471 103.571 397.471 101.287C397.471 98.9027 397.669 96.9161 398.067 95.3267H380.187C380.584 96.9161 380.783 98.9027 380.783 101.287C380.783 103.571 380.584 105.558 380.187 107.247H398.067C398.464 108.836 398.663 110.823 398.663 113.207C398.663 115.491 398.464 117.478 398.067 119.167H374.227C373.829 117.478 373.631 115.491 373.631 113.207C373.631 110.823 373.829 108.836 374.227 107.247H368.267C367.869 105.558 367.671 103.571 367.671 101.287C367.671 98.9027 367.869 96.9161 368.267 95.3267H374.227C373.829 93.6381 373.631 91.6514 373.631 89.3667C373.631 86.9827 373.829 84.9961 374.227 83.4067H398.067C397.669 81.7181 397.471 79.7314 397.471 77.4467C397.471 75.0627 397.669 73.0761 398.067 71.4867H377.207C376.809 69.7981 376.611 67.8114 376.611 65.5267C376.611 63.1427 376.809 61.1561 377.207 59.5667H404.027C404.424 61.1561 404.623 63.1427 404.623 65.5267C404.623 67.8114 404.424 69.7981 404.027 71.4867H409.987C410.384 73.0761 410.583 75.0627 410.583 77.4467C410.583 79.7314 410.384 81.7181 409.987 83.4067C410.384 84.9961 410.583 86.9827 410.583 89.3667C410.583 91.6514 410.384 93.6381 409.987 95.3267C410.384 96.9161 410.583 98.9027 410.583 101.287C410.583 103.571 410.384 105.558 409.987 107.247H415.947ZM475.605 107.247C476.002 108.836 476.201 110.823 476.201 113.207C476.201 115.491 476.002 117.478 475.605 119.167H454.745C454.348 117.478 454.149 115.491 454.149 113.207C454.149 110.823 454.348 108.836 454.745 107.247H448.785C448.388 105.558 448.189 103.571 448.189 101.287C448.189 98.9027 448.388 96.9161 448.785 95.3267H439.845C440.242 96.9161 440.441 98.9027 440.441 101.287C440.441 103.571 440.242 105.558 439.845 107.247C440.242 108.836 440.441 110.823 440.441 113.207C440.441 115.491 440.242 117.478 439.845 119.167H427.925C427.528 117.478 427.329 115.491 427.329 113.207C427.329 110.823 427.528 108.836 427.925 107.247C427.528 105.558 427.329 103.571 427.329 101.287C427.329 98.9027 427.528 96.9161 427.925 95.3267C427.528 93.6381 427.329 91.6514 427.329 89.3667C427.329 86.9827 427.528 84.9961 427.925 83.4067C427.528 81.7181 427.329 79.7314 427.329 77.4467C427.329 75.0627 427.528 73.0761 427.925 71.4867C427.528 69.7981 427.329 67.8114 427.329 65.5267C427.329 63.1427 427.528 61.1561 427.925 59.5667C427.528 57.8781 427.329 55.8914 427.329 53.6067C427.329 51.2227 427.528 49.2361 427.925 47.6467C427.528 45.9581 427.329 43.9714 427.329 41.6867C427.329 39.3027 427.528 37.3161 427.925 35.7267H439.845C440.242 37.3161 440.441 39.3027 440.441 41.6867C440.441 43.9714 440.242 45.9581 439.845 47.6467C440.242 49.2361 440.441 51.2227 440.441 53.6067C440.441 55.8914 440.242 57.8781 439.845 59.5667C440.242 61.1561 440.441 63.1427 440.441 65.5267C440.441 67.8114 440.242 69.7981 439.845 71.4867C440.242 73.0761 440.441 75.0627 440.441 77.4467C440.441 79.7314 440.242 81.7181 439.845 83.4067H448.785C448.388 81.7181 448.189 79.7314 448.189 77.4467C448.189 75.0627 448.388 73.0761 448.785 71.4867H454.745C454.348 69.7981 454.149 67.8114 454.149 65.5267C454.149 63.1427 454.348 61.1561 454.745 59.5667H472.625C473.022 61.1561 473.221 63.1427 473.221 65.5267C473.221 67.8114 473.022 69.7981 472.625 71.4867H460.705C461.102 73.0761 461.301 75.0627 461.301 77.4467C461.301 79.7314 461.102 81.7181 460.705 83.4067H454.745C455.142 84.9961 455.341 86.9827 455.341 89.3667C455.341 91.6514 455.142 93.6381 454.745 95.3267H460.705C461.102 96.9161 461.301 98.9027 461.301 101.287C461.301 103.571 461.102 105.558 460.705 107.247H475.605ZM535.859 89.3667C535.859 91.6514 535.66 93.6381 535.263 95.3267H529.303C529.7 96.9161 529.899 98.9027 529.899 101.287C529.899 103.571 529.7 105.558 529.303 107.247H523.343C523.74 108.836 523.939 110.823 523.939 113.207C523.939 115.491 523.74 117.478 523.343 119.167H499.503C499.9 120.756 500.099 122.743 500.099 125.127C500.099 127.411 499.9 129.398 499.503 131.087C499.9 132.676 500.099 134.663 500.099 137.047C500.099 139.331 499.9 141.318 499.503 143.007H487.583C487.186 141.318 486.987 139.331 486.987 137.047C486.987 134.663 487.186 132.676 487.583 131.087C487.186 129.398 486.987 127.411 486.987 125.127C486.987 122.743 487.186 120.756 487.583 119.167C487.186 117.478 486.987 115.491 486.987 113.207C486.987 110.823 487.186 108.836 487.583 107.247C487.186 105.558 486.987 103.571 486.987 101.287C486.987 98.9027 487.186 96.9161 487.583 95.3267C487.186 93.6381 486.987 91.6514 486.987 89.3667C486.987 86.9827 487.186 84.9961 487.583 83.4067C487.186 81.7181 486.987 79.7314 486.987 77.4467C486.987 75.0627 487.186 73.0761 487.583 71.4867C487.186 69.7981 486.987 67.8114 486.987 65.5267C486.987 63.1427 487.186 61.1561 487.583 59.5667H499.503C499.9 61.1561 500.099 63.1427 500.099 65.5267C500.099 67.8114 499.9 69.7981 499.503 71.4867H505.463C505.86 73.0761 506.059 75.0627 506.059 77.4467C506.059 79.7314 505.86 81.7181 505.463 83.4067H499.503C499.9 84.9961 500.099 86.9827 500.099 89.3667C500.099 91.6514 499.9 93.6381 499.503 95.3267C499.9 96.9161 500.099 98.9027 500.099 101.287C500.099 103.571 499.9 105.558 499.503 107.247H517.383C516.986 105.558 516.787 103.571 516.787 101.287C516.787 98.9027 516.986 96.9161 517.383 95.3267H523.343C522.946 93.6381 522.747 91.6514 522.747 89.3667C522.747 86.9827 522.946 84.9961 523.343 83.4067H517.383C516.986 81.7181 516.787 79.7314 516.787 77.4467C516.787 75.0627 516.986 73.0761 517.383 71.4867H505.463C505.066 69.7981 504.867 67.8114 504.867 65.5267C504.867 63.1427 505.066 61.1561 505.463 59.5667H523.343C523.74 61.1561 523.939 63.1427 523.939 65.5267C523.939 67.8114 523.74 69.7981 523.343 71.4867H529.303C529.7 73.0761 529.899 75.0627 529.899 77.4467C529.899 79.7314 529.7 81.7181 529.303 83.4067H535.263C535.66 84.9961 535.859 86.9827 535.859 89.3667ZM595.517 77.4467C595.517 79.7314 595.319 81.7181 594.921 83.4067C595.319 84.9961 595.517 86.9827 595.517 89.3667C595.517 91.6514 595.319 93.6381 594.921 95.3267H563.631C564.029 96.9161 564.227 98.9027 564.227 101.287C564.227 103.571 564.029 105.558 563.631 107.247H588.961C589.359 108.836 589.557 110.823 589.557 113.207C589.557 115.491 589.359 117.478 588.961 119.167H559.161C558.764 117.478 558.565 115.491 558.565 113.207C558.565 110.823 558.764 108.836 559.161 107.247H551.711C551.314 105.558 551.115 103.571 551.115 101.287C551.115 98.9027 551.314 96.9161 551.711 95.3267H547.241C546.844 93.6381 546.645 91.6514 546.645 89.3667C546.645 86.9827 546.844 84.9961 547.241 83.4067H551.711C551.314 81.7181 551.115 79.7314 551.115 77.4467C551.115 75.0627 551.314 73.0761 551.711 71.4867H559.161C558.764 69.7981 558.565 67.8114 558.565 65.5267C558.565 63.1427 558.764 61.1561 559.161 59.5667H588.961C589.359 61.1561 589.557 63.1427 589.557 65.5267C589.557 67.8114 589.359 69.7981 588.961 71.4867H594.921C595.319 73.0761 595.517 75.0627 595.517 77.4467ZM583.001 83.4067C582.604 81.7181 582.405 79.7314 582.405 77.4467C582.405 75.0627 582.604 73.0761 583.001 71.4867H563.631C564.029 73.0761 564.227 75.0627 564.227 77.4467C564.227 79.7314 564.029 81.7181 563.631 83.4067H583.001ZM654.579 107.247C654.977 108.836 655.175 110.823 655.175 113.207C655.175 115.491 654.977 117.478 654.579 119.167H642.659C642.262 117.478 642.063 115.491 642.063 113.207C642.063 110.823 642.262 108.836 642.659 107.247H636.699C636.302 105.558 636.103 103.571 636.103 101.287C636.103 98.9027 636.302 96.9161 636.699 95.3267H618.819C619.217 96.9161 619.415 98.9027 619.415 101.287C619.415 103.571 619.217 105.558 618.819 107.247H636.699C637.097 108.836 637.295 110.823 637.295 113.207C637.295 115.491 637.097 117.478 636.699 119.167H612.859C612.462 117.478 612.263 115.491 612.263 113.207C612.263 110.823 612.462 108.836 612.859 107.247H606.899C606.502 105.558 606.303 103.571 606.303 101.287C606.303 98.9027 606.502 96.9161 606.899 95.3267H612.859C612.462 93.6381 612.263 91.6514 612.263 89.3667C612.263 86.9827 612.462 84.9961 612.859 83.4067H636.699C636.302 81.7181 636.103 79.7314 636.103 77.4467C636.103 75.0627 636.302 73.0761 636.699 71.4867H615.839C615.442 69.7981 615.243 67.8114 615.243 65.5267C615.243 63.1427 615.442 61.1561 615.839 59.5667H642.659C643.057 61.1561 643.255 63.1427 643.255 65.5267C643.255 67.8114 643.057 69.7981 642.659 71.4867H648.619C649.017 73.0761 649.215 75.0627 649.215 77.4467C649.215 79.7314 649.017 81.7181 648.619 83.4067C649.017 84.9961 649.215 86.9827 649.215 89.3667C649.215 91.6514 649.017 93.6381 648.619 95.3267C649.017 96.9161 649.215 98.9027 649.215 101.287C649.215 103.571 649.017 105.558 648.619 107.247H654.579ZM714.238 107.247C714.635 108.836 714.834 110.823 714.834 113.207C714.834 115.491 714.635 117.478 714.238 119.167H693.378C692.98 117.478 692.782 115.491 692.782 113.207C692.782 110.823 692.98 108.836 693.378 107.247H687.418C687.02 105.558 686.822 103.571 686.822 101.287C686.822 98.9027 687.02 96.9161 687.418 95.3267H678.478C678.875 96.9161 679.074 98.9027 679.074 101.287C679.074 103.571 678.875 105.558 678.478 107.247C678.875 108.836 679.074 110.823 679.074 113.207C679.074 115.491 678.875 117.478 678.478 119.167H666.558C666.16 117.478 665.962 115.491 665.962 113.207C665.962 110.823 666.16 108.836 666.558 107.247C666.16 105.558 665.962 103.571 665.962 101.287C665.962 98.9027 666.16 96.9161 666.558 95.3267C666.16 93.6381 665.962 91.6514 665.962 89.3667C665.962 86.9827 666.16 84.9961 666.558 83.4067C666.16 81.7181 665.962 79.7314 665.962 77.4467C665.962 75.0627 666.16 73.0761 666.558 71.4867C666.16 69.7981 665.962 67.8114 665.962 65.5267C665.962 63.1427 666.16 61.1561 666.558 59.5667C666.16 57.8781 665.962 55.8914 665.962 53.6067C665.962 51.2227 666.16 49.2361 666.558 47.6467C666.16 45.9581 665.962 43.9714 665.962 41.6867C665.962 39.3027 666.16 37.3161 666.558 35.7267H678.478C678.875 37.3161 679.074 39.3027 679.074 41.6867C679.074 43.9714 678.875 45.9581 678.478 47.6467C678.875 49.2361 679.074 51.2227 679.074 53.6067C679.074 55.8914 678.875 57.8781 678.478 59.5667C678.875 61.1561 679.074 63.1427 679.074 65.5267C679.074 67.8114 678.875 69.7981 678.478 71.4867C678.875 73.0761 679.074 75.0627 679.074 77.4467C679.074 79.7314 678.875 81.7181 678.478 83.4067H687.418C687.02 81.7181 686.822 79.7314 686.822 77.4467C686.822 75.0627 687.02 73.0761 687.418 71.4867H693.378C692.98 69.7981 692.782 67.8114 692.782 65.5267C692.782 63.1427 692.98 61.1561 693.378 59.5667H711.258C711.655 61.1561 711.854 63.1427 711.854 65.5267C711.854 67.8114 711.655 69.7981 711.258 71.4867H699.338C699.735 73.0761 699.934 75.0627 699.934 77.4467C699.934 79.7314 699.735 81.7181 699.338 83.4067H693.378C693.775 84.9961 693.974 86.9827 693.974 89.3667C693.974 91.6514 693.775 93.6381 693.378 95.3267H699.338C699.735 96.9161 699.934 98.9027 699.934 101.287C699.934 103.571 699.735 105.558 699.338 107.247H714.238Z" fill="white"/>
</svg>
